<svg width="140" height="37" viewBox="0 0 140 37" fill="none" xmlns="http://www.w3.org/2000/svg">
<g clip-path="url(#clip0_6_2295)">
<path d="M1.33165 36.9721C1.19461 36.9721 1.06318 36.9174 0.966283 36.8199C0.869381 36.7225 0.814941 36.5903 0.814941 36.4524V0.5181C0.814941 0.380271 0.869381 0.248088 0.966283 0.150627C1.06318 0.0531671 1.19461 -0.00158691 1.33165 -0.00158691C1.46869 -0.00158691 1.60011 0.0531671 1.69702 0.150627C1.79392 0.248088 1.84836 0.380271 1.84836 0.5181V36.4524C1.84836 36.5903 1.79392 36.7225 1.69702 36.8199C1.60011 36.9174 1.46869 36.9721 1.33165 36.9721Z" fill="white"/>
<path d="M3.42149 36.9723C3.28445 36.9723 3.15303 36.9175 3.05612 36.82C2.95922 36.7226 2.90479 36.5904 2.90479 36.4526V0.518222C2.90479 0.380393 2.95922 0.24821 3.05612 0.150749C3.15303 0.0532892 3.28445 -0.00146484 3.42149 -0.00146484C3.55853 -0.00146484 3.68996 0.0532892 3.78686 0.150749C3.88376 0.24821 3.9382 0.380393 3.9382 0.518222V36.4526C3.9382 36.5904 3.88376 36.7226 3.78686 36.82C3.68996 36.9175 3.55853 36.9723 3.42149 36.9723Z" fill="white"/>
<path d="M5.51329 36.9723C5.37625 36.9723 5.24482 36.9175 5.14792 36.82C5.05102 36.7226 4.99658 36.5904 4.99658 36.4526V0.518222C4.99658 0.380393 5.05102 0.24821 5.14792 0.150749C5.24482 0.0532892 5.37625 -0.00146484 5.51329 -0.00146484C5.65033 -0.00146484 5.78175 0.0532892 5.87866 0.150749C5.97556 0.24821 6.03 0.380393 6.03 0.518222V36.4526C6.03 36.5904 5.97556 36.7226 5.87866 36.82C5.78175 36.9175 5.65033 36.9723 5.51329 36.9723Z" fill="white"/>
<path d="M11.753 36.9723C11.616 36.9723 11.4846 36.9175 11.3877 36.82C11.2908 36.7226 11.2363 36.5904 11.2363 36.4526V0.518222C11.2363 0.380393 11.2908 0.24821 11.3877 0.150749C11.4846 0.0532892 11.616 -0.00146484 11.753 -0.00146484C11.8901 -0.00146484 12.0215 0.0532892 12.1184 0.150749C12.2153 0.24821 12.2697 0.380393 12.2697 0.518222V36.4526C12.2697 36.5904 12.2153 36.7226 12.1184 36.82C12.0215 36.9175 11.8901 36.9723 11.753 36.9723Z" fill="white"/>
<path d="M13.8443 36.9723C13.7073 36.9723 13.5759 36.9175 13.479 36.82C13.3821 36.7226 13.3276 36.5904 13.3276 36.4526V0.518222C13.3276 0.380393 13.3821 0.24821 13.479 0.150749C13.5759 0.0532892 13.7073 -0.00146484 13.8443 -0.00146484C13.9814 -0.00146484 14.1128 0.0532892 14.2097 0.150749C14.3066 0.24821 14.3611 0.380393 14.3611 0.518222V36.4526C14.3611 36.5904 14.3066 36.7226 14.2097 36.82C14.1128 36.9175 13.9814 36.9723 13.8443 36.9723Z" fill="white"/>
<path d="M15.9386 36.9723C15.8015 36.9723 15.6701 36.9175 15.5732 36.82C15.4763 36.7226 15.4219 36.5904 15.4219 36.4526V0.518222C15.4219 0.380393 15.4763 0.24821 15.5732 0.150749C15.6701 0.0532892 15.8015 -0.00146484 15.9386 -0.00146484C16.0756 -0.00146484 16.207 0.0532892 16.3039 0.150749C16.4009 0.24821 16.4553 0.380393 16.4553 0.518222V36.4526C16.4553 36.5904 16.4009 36.7226 16.3039 36.82C16.207 36.9175 16.0756 36.9723 15.9386 36.9723Z" fill="white"/>
<path d="M35.317 36.9679H35.2502C35.1142 36.9497 34.9909 36.878 34.9074 36.7686C34.8239 36.6591 34.7869 36.5208 34.8046 36.3839L37.9571 11.7572C37.9772 11.6228 38.0489 11.5016 38.1568 11.4197C38.2646 11.3378 38.4001 11.3017 38.5341 11.3191C38.6682 11.3365 38.7901 11.406 38.8738 11.5127C38.9575 11.6194 38.9963 11.7549 38.9818 11.89L35.8293 36.5168C35.8128 36.6418 35.7518 36.7565 35.6576 36.8398C35.5634 36.923 35.4424 36.969 35.317 36.9693" fill="white"/>
<path d="M37.4298 36.9679H37.363C37.227 36.9497 37.1037 36.878 37.0202 36.7686C36.9367 36.6591 36.8997 36.5208 36.9174 36.3839L40.0699 11.7572C40.09 11.6228 40.1617 11.5016 40.2696 11.4197C40.3774 11.3378 40.5129 11.3017 40.6469 11.3191C40.781 11.3365 40.9029 11.406 40.9866 11.5127C41.0703 11.6194 41.1091 11.7549 41.0946 11.89L37.9421 36.5168C37.9256 36.6418 37.8646 36.7565 37.7704 36.8398C37.6762 36.923 37.5552 36.969 37.4298 36.9693" fill="white"/>
<path d="M39.5475 36.9679H39.4807C39.3447 36.9497 39.2214 36.878 39.1379 36.7686C39.0543 36.6591 39.0174 36.5208 39.0351 36.3839L42.1876 11.7572C42.2077 11.6228 42.2794 11.5016 42.3872 11.4197C42.4951 11.3378 42.6306 11.3017 42.7646 11.3191C42.8986 11.3365 43.0206 11.406 43.1043 11.5127C43.188 11.6194 43.2267 11.7549 43.2123 11.89L40.0598 36.5168C40.0436 36.6419 39.9827 36.7569 39.8884 36.8401C39.7941 36.9234 39.6729 36.9693 39.5475 36.9693" fill="white"/>
<path d="M47.8021 36.9679C47.6767 36.9675 47.5557 36.9215 47.4615 36.8383C47.3673 36.7551 47.3062 36.6403 47.2897 36.5153L44.1372 11.8886C44.1228 11.7534 44.1616 11.618 44.2453 11.5112C44.329 11.4045 44.4509 11.335 44.5849 11.3176C44.719 11.3002 44.8544 11.3364 44.9623 11.4183C45.0702 11.5002 45.1418 11.6213 45.1619 11.7557L48.3144 36.3825C48.3322 36.5193 48.2952 36.6576 48.2117 36.7671C48.1281 36.8766 48.0048 36.9482 47.8688 36.9664H47.8021" fill="white"/>
<path d="M45.7263 36.9679C45.6015 36.9679 45.4808 36.9224 45.3869 36.8397C45.2929 36.7569 45.232 36.6427 45.2155 36.5183L42.8801 19.1146C42.8618 18.9779 42.8983 18.8395 42.9814 18.7299C43.0646 18.6202 43.1876 18.5483 43.3235 18.5299C43.4594 18.5115 43.597 18.5482 43.706 18.6318C43.815 18.7154 43.8865 18.8392 43.9048 18.9759L46.2387 36.3796C46.2574 36.515 46.2221 36.6523 46.1405 36.7617C46.059 36.8711 45.9378 36.9436 45.8033 36.9635C45.7801 36.9649 45.7568 36.9649 45.7336 36.9635" fill="white"/>
<path d="M43.5958 36.9679C43.4707 36.9679 43.3499 36.9221 43.2559 36.8391C43.1619 36.7561 43.1011 36.6416 43.0849 36.5168L41.8483 27.1624C41.8393 27.0948 41.8437 27.026 41.8612 26.96C41.8786 26.894 41.9089 26.8322 41.9501 26.778C41.9913 26.7237 42.0428 26.6782 42.1015 26.644C42.1603 26.6098 42.2251 26.5875 42.2924 26.5785C42.3597 26.5695 42.4281 26.5739 42.4937 26.5915C42.5593 26.6091 42.6208 26.6395 42.6747 26.6809C42.7286 26.7224 42.7738 26.7742 42.8079 26.8332C42.8419 26.8923 42.864 26.9575 42.873 27.0252L44.1081 36.3811C44.1171 36.4487 44.1128 36.5175 44.0953 36.5835C44.0778 36.6495 44.0476 36.7113 44.0064 36.7656C43.9651 36.8198 43.9137 36.8653 43.8549 36.8995C43.7962 36.9337 43.7313 36.956 43.664 36.965C43.6413 36.9664 43.6185 36.9664 43.5958 36.965" fill="white"/>
<path d="M19.8228 36.9679H19.756C19.6198 36.95 19.4961 36.8785 19.4123 36.769C19.3285 36.6595 19.2913 36.521 19.309 36.3839L22.4615 11.7572C22.4816 11.6228 22.5533 11.5016 22.6611 11.4197C22.769 11.3378 22.9045 11.3017 23.0385 11.3191C23.1725 11.3365 23.2945 11.406 23.3782 11.5127C23.4619 11.6194 23.5006 11.7549 23.4862 11.89L20.3337 36.5168C20.3175 36.6417 20.2568 36.7564 20.1628 36.8396C20.0689 36.9229 19.948 36.969 19.8228 36.9693" fill="white"/>
<path d="M21.9302 36.9679H21.8635C21.7272 36.95 21.6036 36.8785 21.5197 36.769C21.4359 36.6595 21.3987 36.521 21.4164 36.3839L24.5689 11.7572C24.589 11.6228 24.6607 11.5016 24.7686 11.4197C24.8764 11.3378 25.0119 11.3017 25.1459 11.3191C25.28 11.3365 25.4019 11.406 25.4856 11.5127C25.5693 11.6194 25.6081 11.7549 25.5936 11.89L22.4353 36.5153C22.4191 36.6402 22.3584 36.7549 22.2644 36.8382C22.1705 36.9214 22.0496 36.9675 21.9244 36.9679" fill="white"/>
<path d="M24.0481 36.9679H23.9814C23.9139 36.9591 23.8489 36.9369 23.79 36.9028C23.7311 36.8687 23.6795 36.8232 23.6381 36.7689C23.5967 36.7147 23.5663 36.6528 23.5488 36.5867C23.5312 36.5206 23.5268 36.4517 23.5358 36.3839L26.6883 11.7572C26.7084 11.6228 26.78 11.5016 26.8879 11.4197C26.9958 11.3378 27.1312 11.3017 27.2653 11.3191C27.3993 11.3365 27.5212 11.406 27.6049 11.5127C27.6886 11.6194 27.7274 11.7549 27.713 11.89L24.559 36.5168C24.5428 36.6417 24.4821 36.7564 24.3881 36.8396C24.2942 36.9229 24.1733 36.969 24.0481 36.9693" fill="white"/>
<path d="M32.305 36.9679C32.1795 36.9679 32.0584 36.9219 31.9641 36.8387C31.8698 36.7554 31.8089 36.6405 31.7927 36.5153L28.6402 11.8886C28.6257 11.7534 28.6645 11.618 28.7482 11.5112C28.8319 11.4045 28.9538 11.335 29.0879 11.3176C29.2219 11.3002 29.3574 11.3364 29.4652 11.4183C29.5731 11.5002 29.6448 11.6213 29.6649 11.7557L32.8174 36.3825C32.8351 36.5195 32.7979 36.658 32.7141 36.7675C32.6302 36.8771 32.5066 36.9486 32.3703 36.9664H32.305" fill="white"/>
<path d="M30.2268 36.9678C30.1018 36.9679 29.981 36.9224 29.8868 36.8397C29.7926 36.757 29.7313 36.6428 29.7145 36.5182L27.3806 19.1145C27.3684 18.981 27.4079 18.848 27.4909 18.7431C27.5739 18.6382 27.694 18.5697 27.8261 18.5518C27.9582 18.5339 28.0921 18.568 28.1997 18.647C28.3074 18.726 28.3805 18.8439 28.4039 18.9758L30.7392 36.3795C30.7482 36.4472 30.7438 36.516 30.7264 36.582C30.7089 36.6479 30.6787 36.7098 30.6374 36.764C30.5962 36.8183 30.5447 36.8638 30.486 36.898C30.4272 36.9322 30.3624 36.9545 30.2951 36.9634H30.2268" fill="white"/>
<path d="M28.0958 36.9679C27.9706 36.9679 27.8496 36.9222 27.7553 36.8392C27.6611 36.7563 27.6 36.6417 27.5835 36.5168L26.3541 27.1624C26.336 27.0258 26.3727 26.8875 26.456 26.778C26.5393 26.6685 26.6624 26.5967 26.7983 26.5785C26.9342 26.5603 27.0717 26.5972 27.1805 26.6809C27.2894 26.7647 27.3607 26.8886 27.3788 27.0252L28.6155 36.3811C28.6244 36.4487 28.6201 36.5175 28.6026 36.5835C28.5851 36.6495 28.5549 36.7113 28.5137 36.7656C28.4724 36.8198 28.421 36.8653 28.3622 36.8995C28.3035 36.9337 28.2386 36.956 28.1713 36.965H28.1031" fill="white"/>
<path d="M94.2883 27.069C94.2078 27.0691 94.1287 27.0482 94.0587 27.0083C93.9887 26.9684 93.9302 26.9109 93.889 26.8415C93.8477 26.772 93.8251 26.693 93.8234 26.6121C93.8216 26.5312 93.8408 26.4512 93.879 26.38L96.612 21.2707C96.6383 21.2127 96.6762 21.1608 96.7232 21.1181C96.7702 21.0753 96.8254 21.0428 96.8854 21.0223C96.9454 21.0018 97.009 20.9939 97.0721 20.9991C97.1353 21.0042 97.1967 21.0223 97.2526 21.0523C97.3086 21.0822 97.3578 21.1233 97.3974 21.1731C97.4369 21.2229 97.466 21.2803 97.4826 21.3418C97.4993 21.4033 97.5033 21.4675 97.4943 21.5306C97.4854 21.5937 97.4637 21.6543 97.4306 21.7087L94.6976 26.8179C94.6581 26.8926 94.5991 26.9549 94.527 26.9984C94.4549 27.0419 94.3723 27.0648 94.2883 27.0646" fill="white"/>
<path d="M94.2883 30.8674C94.2078 30.8675 94.1287 30.8466 94.0587 30.8067C93.9887 30.7668 93.9302 30.7093 93.889 30.6399C93.8477 30.5704 93.8251 30.4914 93.8234 30.4105C93.8216 30.3296 93.8408 30.2496 93.879 30.1784L96.612 25.0691C96.6738 24.9676 96.7718 24.8937 96.8859 24.8624C97 24.8311 97.1218 24.8448 97.2262 24.9007C97.3307 24.9565 97.41 25.0504 97.448 25.1631C97.4859 25.2758 97.4797 25.3988 97.4306 25.5071L94.6976 30.6163C94.6577 30.6906 94.5986 30.7526 94.5266 30.7958C94.4545 30.839 94.3722 30.8617 94.2883 30.8616" fill="white"/>
<path d="M94.2883 34.6424C94.2112 34.6419 94.1355 34.6223 94.0677 34.5855C93.9594 34.5267 93.8787 34.4272 93.8433 34.3087C93.808 34.1902 93.8208 34.0624 93.879 33.9534L96.612 28.8441C96.6383 28.7861 96.6762 28.7342 96.7232 28.6914C96.7702 28.6487 96.8254 28.6161 96.8854 28.5957C96.9454 28.5752 97.009 28.5673 97.0721 28.5725C97.1353 28.5776 97.1967 28.5957 97.2526 28.6256C97.3086 28.6556 97.3578 28.6967 97.3974 28.7465C97.4369 28.7963 97.466 28.8537 97.4826 28.9152C97.4993 28.9766 97.5033 29.0409 97.4943 29.104C97.4854 29.1671 97.4637 29.2277 97.4306 29.282L94.6976 34.3913C94.6579 34.4658 94.5989 34.5281 94.5268 34.5716C94.4548 34.615 94.3723 34.638 94.2883 34.638" fill="white"/>
<path d="M7.06026 27.069C6.98308 27.0694 6.90711 27.0498 6.83964 27.0121C6.78583 26.983 6.73826 26.9435 6.69969 26.8959C6.66112 26.8482 6.6323 26.7934 6.61489 26.7345C6.59749 26.6756 6.59184 26.6138 6.59828 26.5527C6.60472 26.4916 6.62311 26.4324 6.6524 26.3785L9.83103 20.4707C9.89309 20.368 9.99203 20.2932 10.1074 20.2618C10.2227 20.2304 10.3457 20.2447 10.4508 20.3019C10.5559 20.3591 10.6352 20.4547 10.6722 20.569C10.7092 20.6833 10.7011 20.8075 10.6496 20.916L7.46956 26.8238C7.42971 26.898 7.37062 26.96 7.29855 27.0032C7.22649 27.0464 7.14414 27.0691 7.06026 27.069Z" fill="white"/>
<path d="M7.0606 30.8674C6.9799 30.8679 6.90049 30.8471 6.83025 30.8071C6.76001 30.7671 6.70138 30.7094 6.66016 30.6396C6.61894 30.5698 6.59658 30.4904 6.59528 30.4093C6.59397 30.3281 6.61378 30.248 6.65274 30.177L9.83136 24.2706C9.85857 24.2133 9.89709 24.1621 9.94457 24.1202C9.99204 24.0784 10.0475 24.0466 10.1075 24.0269C10.1676 24.0073 10.231 24.0001 10.2939 24.0058C10.3568 24.0116 10.4179 24.0301 10.4734 24.0603C10.529 24.0905 10.5779 24.1318 10.6171 24.1816C10.6563 24.2314 10.685 24.2887 10.7015 24.35C10.718 24.4113 10.722 24.4754 10.7131 24.5383C10.7042 24.6011 10.6828 24.6616 10.65 24.7159L7.4699 30.6222C7.4303 30.6966 7.37126 30.7588 7.29914 30.802C7.22702 30.8453 7.14455 30.8679 7.0606 30.8674Z" fill="white"/>
<path d="M7.06057 34.6424C6.98019 34.6419 6.9013 34.6206 6.83155 34.5804C6.7618 34.5403 6.70357 34.4826 6.66252 34.4131C6.62147 34.3436 6.59899 34.2646 6.59727 34.1838C6.59556 34.103 6.61465 34.0231 6.65271 33.9519L9.83134 28.0426C9.89547 27.946 9.99303 27.8767 10.1051 27.8483C10.2171 27.8199 10.3357 27.8344 10.4377 27.889C10.5397 27.9436 10.6179 28.0343 10.6571 28.1437C10.6964 28.253 10.6938 28.3731 10.6499 28.4806L7.46987 34.3957C7.43002 34.4699 7.37093 34.5319 7.29886 34.5751C7.2268 34.6183 7.14445 34.641 7.06057 34.6409" fill="white"/>
<path d="M88.5069 36.9723C88.3699 36.9723 88.2385 36.9175 88.1416 36.8201C88.0447 36.7226 87.9902 36.5904 87.9902 36.4526V11.7923C87.9902 11.6544 88.0447 11.5223 88.1416 11.4248C88.2385 11.3273 88.3699 11.2726 88.5069 11.2726C88.644 11.2726 88.7754 11.3273 88.8723 11.4248C88.9692 11.5223 89.0237 11.6544 89.0237 11.7923V36.4526C89.0237 36.5904 88.9692 36.7226 88.8723 36.8201C88.7754 36.9175 88.644 36.9723 88.5069 36.9723Z" fill="white"/>
<path d="M90.5973 36.9723C90.4602 36.9723 90.3288 36.9175 90.2319 36.8201C90.135 36.7226 90.0806 36.5904 90.0806 36.4526V11.7923C90.0806 11.6544 90.135 11.5223 90.2319 11.4248C90.3288 11.3273 90.4602 11.2726 90.5973 11.2726C90.7343 11.2726 90.8657 11.3273 90.9626 11.4248C91.0595 11.5223 91.114 11.6544 91.114 11.7923V36.4526C91.114 36.5904 91.0595 36.7226 90.9626 36.8201C90.8657 36.9175 90.7343 36.9723 90.5973 36.9723Z" fill="white"/>
<path d="M92.6842 36.9723C92.5471 36.9723 92.4157 36.9175 92.3188 36.8201C92.2219 36.7226 92.1675 36.5904 92.1675 36.4526V11.7923C92.1675 11.6544 92.2219 11.5223 92.3188 11.4248C92.4157 11.3273 92.5471 11.2726 92.6842 11.2726C92.8212 11.2726 92.9526 11.3273 93.0496 11.4248C93.1465 11.5223 93.2009 11.6544 93.2009 11.7923V36.4526C93.2009 36.5904 93.1465 36.7226 93.0496 36.8201C92.9526 36.9175 92.8212 36.9723 92.6842 36.9723Z" fill="white"/>
<path d="M98.6266 36.9723C98.4895 36.9723 98.3581 36.9175 98.2612 36.8201C98.1643 36.7226 98.1099 36.5904 98.1099 36.4526V11.7923C98.1099 11.6544 98.1643 11.5223 98.2612 11.4248C98.3581 11.3273 98.4895 11.2726 98.6266 11.2726C98.7636 11.2726 98.895 11.3273 98.9919 11.4248C99.0888 11.5223 99.1433 11.6544 99.1433 11.7923V36.4526C99.1433 36.5904 99.0888 36.7226 98.9919 36.8201C98.895 36.9175 98.7636 36.9723 98.6266 36.9723Z" fill="white"/>
<path d="M100.718 36.9723C100.581 36.9723 100.449 36.9175 100.353 36.8201C100.256 36.7226 100.201 36.5904 100.201 36.4526V11.7923C100.201 11.6544 100.256 11.5223 100.353 11.4248C100.449 11.3273 100.581 11.2726 100.718 11.2726C100.855 11.2726 100.986 11.3273 101.083 11.4248C101.18 11.5223 101.235 11.6544 101.235 11.7923V36.4526C101.235 36.5904 101.18 36.7226 101.083 36.8201C100.986 36.9175 100.855 36.9723 100.718 36.9723Z" fill="white"/>
<path d="M102.81 36.9723C102.673 36.9723 102.541 36.9175 102.444 36.8201C102.347 36.7226 102.293 36.5904 102.293 36.4526V11.7923C102.293 11.6544 102.347 11.5223 102.444 11.4248C102.541 11.3273 102.673 11.2726 102.81 11.2726C102.947 11.2726 103.078 11.3273 103.175 11.4248C103.272 11.5223 103.326 11.6544 103.326 11.7923V36.4526C103.326 36.5904 103.272 36.7226 103.175 36.8201C103.078 36.9175 102.947 36.9723 102.81 36.9723Z" fill="white"/>
<path d="M79.2587 37C79.1285 36.9995 79.0032 36.95 78.9075 36.8613C78.8086 36.7675 78.7503 36.6383 78.7455 36.5017C78.7406 36.3651 78.7894 36.232 78.8814 36.1314C80.2791 34.619 81.9119 32.1461 81.9119 30.1462C81.9119 28.428 80.6826 26.5069 80.221 25.7843C79.893 25.2734 79.5229 24.6939 79.5229 24.1362C79.5229 23.5786 79.8887 23.0618 80.2414 22.5538C80.8408 21.6925 81.732 19.7437 81.732 17.9029C81.732 15.7468 80.8045 13.4987 79.369 12.1747C79.3156 12.1295 79.2718 12.074 79.2402 12.0114C79.2087 11.9488 79.1901 11.8804 79.1855 11.8103C79.181 11.7403 79.1906 11.67 79.2138 11.6038C79.237 11.5376 79.2733 11.4768 79.3205 11.4251C79.3677 11.3734 79.4248 11.3318 79.4884 11.3029C79.552 11.274 79.6208 11.2584 79.6906 11.2569C79.7604 11.2555 79.8297 11.2683 79.8944 11.2946C79.9592 11.3208 80.0179 11.36 80.0672 11.4097C81.7305 12.9425 82.7654 15.4315 82.7654 17.9029C82.7654 19.8517 81.8945 21.9903 81.0875 23.1494C80.8509 23.4895 80.5563 23.9143 80.5563 24.1362C80.5563 24.3888 80.8771 24.8895 81.089 25.2223C81.9526 26.5726 82.9454 28.3536 82.9454 30.1462C82.9454 33.1096 80.1876 36.2379 79.6376 36.835C79.5894 36.8877 79.5308 36.9297 79.4656 36.9583C79.4004 36.987 79.3299 37.0017 79.2587 37.0014" fill="white"/>
<path d="M81.7986 37C81.6839 37.0003 81.5725 36.9617 81.4822 36.8905C81.4284 36.8487 81.3834 36.7966 81.3498 36.7372C81.3161 36.6778 81.2945 36.6123 81.2861 36.5444C81.2778 36.4766 81.2828 36.4077 81.3011 36.3419C81.3193 36.276 81.3502 36.2144 81.3922 36.1606C83.176 33.8469 84.0048 31.9272 84.0048 30.1434C84.0048 28.5113 83.1804 27.0121 82.578 25.9099C82.4459 25.6691 82.3211 25.4428 82.221 25.2414C82.1948 25.1888 82.1687 25.1392 82.144 25.0954C81.9727 24.8184 81.8752 24.5016 81.861 24.1757C81.861 23.7845 82.0497 23.4604 82.2021 23.2006L82.234 23.1553C82.3966 22.8721 83.8306 20.3291 83.8306 17.9088C83.8306 15.6578 83.1267 13.6623 81.7986 12.1397C81.7504 12.0891 81.7129 12.0292 81.6883 11.9636C81.6638 11.898 81.6526 11.8281 81.6556 11.7581C81.6586 11.6881 81.6756 11.6194 81.7057 11.5562C81.7357 11.493 81.7782 11.4365 81.8305 11.3902C81.8828 11.3439 81.9438 11.3087 82.01 11.2868C82.0762 11.2648 82.1461 11.2566 82.2155 11.2625C82.2849 11.2684 82.3524 11.2884 82.414 11.3212C82.4755 11.3541 82.5299 11.3991 82.5737 11.4536C84.073 13.1688 84.8655 15.395 84.8655 17.9088C84.8655 19.9525 83.9307 22.2882 83.131 23.6779L83.0947 23.7392C83.0003 23.8741 82.9333 24.0264 82.8973 24.1874C82.918 24.3443 82.9747 24.4942 83.0628 24.6253C83.0904 24.6779 83.1179 24.7334 83.147 24.7903C83.2384 24.9728 83.3531 25.18 83.4852 25.4224C84.1049 26.5493 85.0411 28.2529 85.0411 30.1521C85.0411 32.1871 84.1412 34.3009 82.2079 36.8059C82.1597 36.8688 82.0977 36.9198 82.0267 36.9547C81.9557 36.9897 81.8776 37.0077 81.7986 37.0073" fill="white"/>
<path d="M76.4283 37C76.3212 36.9999 76.2169 36.9664 76.1296 36.904C76.0424 36.8417 75.9765 36.7537 75.9411 36.6521C75.9058 36.5505 75.9026 36.4403 75.9322 36.3369C75.9617 36.2334 76.0225 36.1417 76.1061 36.0745C77.9494 34.5986 79.813 32.0893 79.813 30.1448C79.813 28.5478 78.9029 27.2252 78.0219 25.9523C77.9131 25.7961 77.8057 25.6399 77.7012 25.4866C77.4216 25.0907 77.265 24.6203 77.2512 24.1348C77.2569 23.657 77.4209 23.1947 77.7171 22.821C78.9886 21.0941 79.633 19.4401 79.633 17.9015C79.633 15.4198 78.0364 13.3236 76.5328 12.1952C76.4231 12.1125 76.3505 11.9894 76.331 11.8529C76.3116 11.7164 76.3468 11.5778 76.429 11.4674C76.5112 11.3571 76.6336 11.2841 76.7693 11.2645C76.905 11.245 77.0428 11.2804 77.1525 11.3631C78.8521 12.6433 80.6664 15.033 80.6664 17.9015C80.6664 19.6679 79.9538 21.5306 78.5473 23.44C78.3831 23.6344 78.2904 23.8798 78.2846 24.1348C78.2963 24.4123 78.3875 24.6805 78.5473 24.9071C78.6504 25.053 78.7564 25.2107 78.8623 25.3654C79.7898 26.707 80.8391 28.2266 80.8391 30.1507C80.8391 31.3024 80.3529 32.6323 79.4342 33.9782C78.6805 35.0757 77.7743 36.0589 76.7432 36.8978C76.652 36.9718 76.5382 37.012 76.421 37.0117" fill="white"/>
<path d="M114.351 36.9547C114.279 36.9546 114.208 36.9394 114.143 36.91C114.077 36.8806 114.018 36.8376 113.97 36.7839C111.716 34.295 108.63 30.8849 108.63 24.1946C108.63 20.5262 110.112 16.3001 112.404 13.4272C112.446 13.3738 112.499 13.3294 112.558 13.2964C112.618 13.2635 112.683 13.2427 112.751 13.2352C112.818 13.2277 112.886 13.2337 112.952 13.2528C113.017 13.2719 113.078 13.3038 113.131 13.3466C113.184 13.3895 113.228 13.4424 113.26 13.5023C113.293 13.5623 113.314 13.6282 113.321 13.6961C113.328 13.7641 113.322 13.8328 113.303 13.8984C113.284 13.964 113.252 14.0251 113.209 14.0783C111.089 16.7322 109.666 20.8006 109.666 24.1946C109.666 30.482 112.478 33.5884 114.737 36.0847C114.806 36.1591 114.852 36.2522 114.869 36.3524C114.886 36.4526 114.873 36.5556 114.832 36.6486C114.792 36.7417 114.725 36.8208 114.64 36.8763C114.556 36.9317 114.457 36.961 114.356 36.9606" fill="white"/>
<path d="M115.158 34.9505C115.04 34.9507 114.925 34.9094 114.833 34.8337C114.727 34.7469 114.659 34.6213 114.645 34.4845C114.631 34.3476 114.671 34.2108 114.758 34.1038C116.862 31.5054 118.17 27.7085 118.17 24.1962C118.17 19.9934 116.084 14.9484 113.212 12.201C113.16 12.1547 113.118 12.0983 113.088 12.0353C113.058 11.9722 113.041 11.9038 113.039 11.834C113.036 11.7643 113.047 11.6947 113.071 11.6293C113.096 11.564 113.133 11.5043 113.181 11.4538C113.229 11.4033 113.286 11.363 113.35 11.3353C113.414 11.3076 113.482 11.2932 113.552 11.2927C113.621 11.2923 113.69 11.3059 113.754 11.3328C113.818 11.3597 113.876 11.3993 113.924 11.4492C116.983 14.3688 119.203 19.735 119.203 24.1962C119.203 27.9917 117.84 31.9433 115.559 34.7607C115.51 34.8207 115.449 34.869 115.38 34.902C115.311 34.9351 115.235 34.9522 115.158 34.952" fill="white"/>
<path d="M113.912 32.9972C113.829 32.9974 113.748 32.978 113.675 32.9404C113.602 32.9028 113.539 32.8482 113.491 32.7811C111.696 30.2819 110.731 27.2773 110.733 24.1946C110.733 21.8896 111.261 19.8459 112.502 17.3584C112.531 17.2948 112.572 17.2378 112.624 17.1906C112.675 17.1435 112.735 17.1072 112.801 17.084C112.866 17.0608 112.935 17.0511 113.005 17.0555C113.074 17.0599 113.142 17.0783 113.204 17.1096C113.266 17.1409 113.321 17.1845 113.366 17.2378C113.411 17.291 113.445 17.3528 113.466 17.4195C113.486 17.4862 113.493 17.5564 113.486 17.6259C113.479 17.6954 113.459 17.7628 113.425 17.8241C112.264 20.1597 111.766 22.0575 111.766 24.1946C111.764 27.0589 112.659 29.851 114.325 32.1739C114.381 32.2514 114.414 32.3428 114.421 32.4381C114.428 32.5334 114.409 32.6288 114.366 32.7139C114.323 32.7989 114.257 32.8704 114.176 32.9204C114.095 32.9704 114.002 32.997 113.907 32.9972" fill="white"/>
<path d="M114.997 31.2514C114.914 31.2511 114.833 31.2311 114.759 31.193C114.699 31.1617 114.645 31.1188 114.602 31.0667C114.558 31.0146 114.525 30.9543 114.504 30.8894C114.484 30.8244 114.476 30.756 114.482 30.6882C114.488 30.6203 114.507 30.5542 114.538 30.4937C115.541 28.5468 116.067 26.3873 116.074 24.1947C116.074 21.2518 115.165 18.2869 113.58 16.0593C113.505 15.947 113.476 15.8095 113.499 15.676C113.523 15.5425 113.598 15.4236 113.707 15.3448C113.817 15.2659 113.953 15.2332 114.086 15.2538C114.22 15.2744 114.34 15.3466 114.421 15.4549C116.128 17.8548 117.106 21.0401 117.106 24.1947C117.099 26.5533 116.534 28.8764 115.456 30.9711C115.412 31.0557 115.346 31.1266 115.265 31.176C115.184 31.2255 115.092 31.2515 114.997 31.2514Z" fill="white"/>
<path d="M111.612 36.9548C111.545 36.9558 111.478 36.9435 111.415 36.9184C111.352 36.8934 111.295 36.8561 111.246 36.8088C108.29 33.8177 106.523 29.1055 106.523 24.202C106.523 19.2986 108.384 14.4112 111.38 11.4478C111.477 11.351 111.609 11.2972 111.746 11.2981C111.883 11.2991 112.014 11.3547 112.111 11.4529C112.207 11.551 112.26 11.6836 112.26 11.8214C112.259 11.9593 112.203 12.0911 112.106 12.1879C109.301 14.9615 107.558 19.5672 107.558 24.202C107.558 28.8369 109.211 33.2761 111.981 36.076C112.052 36.1491 112.1 36.2417 112.12 36.3423C112.139 36.4429 112.128 36.5469 112.089 36.6415C112.05 36.736 111.984 36.8168 111.899 36.8739C111.815 36.9309 111.715 36.9616 111.614 36.9621" fill="white"/>
<path d="M116.206 36.9548C116.104 36.9546 116.004 36.9241 115.92 36.8671C115.835 36.8101 115.769 36.7291 115.729 36.6343C115.69 36.5396 115.68 36.4353 115.7 36.3346C115.719 36.234 115.768 36.1414 115.84 36.0687C118.608 33.2688 120.261 28.8295 120.261 24.1947C120.261 19.5598 118.52 14.9556 115.715 12.1806C115.667 12.1326 115.629 12.0756 115.602 12.0127C115.576 11.9499 115.562 11.8824 115.562 11.8141C115.561 11.7459 115.574 11.6782 115.6 11.615C115.625 11.5517 115.663 11.4942 115.71 11.4456C115.758 11.397 115.815 11.3583 115.877 11.3317C115.94 11.3052 116.007 11.2913 116.075 11.2908C116.143 11.2903 116.21 11.3033 116.273 11.329C116.336 11.3546 116.393 11.3925 116.441 11.4405C119.435 14.4038 121.296 19.2912 121.296 24.1947C121.296 29.0981 119.536 33.8118 116.573 36.8015C116.475 36.8971 116.343 36.9496 116.206 36.9475" fill="white"/>
<path d="M67.9813 36.9547C67.9091 36.9547 67.8377 36.9394 67.7717 36.91C67.7058 36.8806 67.6466 36.8377 67.5981 36.7839C65.3455 34.295 62.2583 30.8849 62.2583 24.1946C62.2583 20.5262 63.7402 16.3001 66.032 13.4272C66.0744 13.3738 66.1269 13.3294 66.1865 13.2964C66.246 13.2635 66.3115 13.2427 66.379 13.2352C66.4466 13.2277 66.5149 13.2337 66.5802 13.2528C66.6454 13.2719 66.7063 13.3038 66.7592 13.3466C66.8122 13.3895 66.8563 13.4424 66.8889 13.5023C66.9215 13.5623 66.942 13.6282 66.9493 13.6961C66.9566 13.7641 66.9504 13.8328 66.9313 13.8984C66.9121 13.964 66.8802 14.0251 66.8375 14.0783C64.7156 16.7351 63.2888 20.8006 63.2888 24.1946C63.2888 30.482 66.1002 33.5884 68.3601 36.0847C68.4289 36.1591 68.4745 36.2522 68.4914 36.3524C68.5083 36.4526 68.4956 36.5556 68.4551 36.6486C68.4145 36.7417 68.3478 36.8208 68.2631 36.8763C68.1784 36.9317 68.0794 36.961 67.9784 36.9606" fill="white"/>
<path d="M68.7883 34.9505C68.6908 34.9503 68.5953 34.9224 68.5129 34.8699C68.4306 34.8175 68.3646 34.7427 68.3227 34.6541C68.2808 34.5656 68.2647 34.4669 68.2762 34.3695C68.2877 34.2722 68.3263 34.18 68.3877 34.1038C70.4922 31.5054 71.7985 27.7084 71.7985 24.1962C71.7985 19.9934 69.7143 14.9484 66.8419 12.201C66.7428 12.1062 66.6852 11.9756 66.6818 11.838C66.6784 11.7005 66.7295 11.5672 66.8238 11.4675C66.9181 11.3678 67.0479 11.3099 67.1847 11.3064C67.3215 11.303 67.454 11.3544 67.5531 11.4492C70.6127 14.3688 72.8319 19.735 72.8319 24.1962C72.8319 27.9916 71.4705 31.9433 69.1889 34.7607C69.1404 34.8205 69.0793 34.8687 69.01 34.9018C68.9407 34.9348 68.865 34.952 68.7883 34.952" fill="white"/>
<path d="M67.54 32.9972C67.458 32.9976 67.3771 32.9782 67.3041 32.9406C67.2311 32.903 67.1681 32.8483 67.1205 32.7812C65.3256 30.2823 64.3606 27.2774 64.3628 24.1947C64.3628 21.8896 64.8911 19.8459 66.1306 17.3584C66.192 17.2351 66.2996 17.1414 66.4297 17.0979C66.5598 17.0543 66.7018 17.0646 66.8244 17.1263C66.947 17.1881 67.0402 17.2963 67.0835 17.4272C67.1268 17.558 67.1166 17.7008 67.0552 17.8241C65.894 20.1598 65.3962 22.0575 65.3962 24.1947C65.3928 27.059 66.2883 29.8514 67.9551 32.1739C68.0106 32.2515 68.0438 32.3431 68.051 32.4385C68.0581 32.5339 68.039 32.6294 67.9956 32.7145C67.9522 32.7997 67.8863 32.8711 67.8052 32.921C67.724 32.9709 67.6307 32.9973 67.5356 32.9972" fill="white"/>
<path d="M68.6254 31.2514C68.5368 31.2512 68.4498 31.2282 68.3726 31.1846C68.2955 31.1409 68.2308 31.078 68.1847 31.0019C68.1387 30.9259 68.1128 30.8392 68.1097 30.7502C68.1065 30.6612 68.1262 30.5729 68.1667 30.4937C69.1693 28.5468 69.6958 26.3873 69.7023 24.1947C69.7023 21.2518 68.7937 18.2869 67.2102 16.0593C67.1345 15.947 67.1054 15.8095 67.1292 15.676C67.1529 15.5425 67.2276 15.4236 67.3373 15.3448C67.447 15.2659 67.5829 15.2332 67.7162 15.2538C67.8495 15.2744 67.9695 15.3466 68.0506 15.4549C69.7575 17.8548 70.7357 21.0401 70.7357 24.1947C70.7292 26.5533 70.1634 28.8764 69.0855 30.9711C69.0417 31.0558 68.9757 31.1268 68.8945 31.1762C68.8134 31.2256 68.7202 31.2516 68.6254 31.2514Z" fill="white"/>
<path d="M65.242 36.9548C65.1745 36.9558 65.1075 36.9434 65.0447 36.9184C64.9819 36.8933 64.9247 36.8561 64.8763 36.8088C61.9139 33.8118 60.1533 29.0981 60.1533 24.1947C60.1533 19.2912 62.014 14.4038 65.0083 11.4405C65.0567 11.3925 65.1139 11.3546 65.1768 11.329C65.2396 11.3033 65.3069 11.2903 65.3748 11.2908C65.4426 11.2913 65.5097 11.3052 65.5723 11.3317C65.6348 11.3583 65.6915 11.397 65.7391 11.4456C65.7868 11.4942 65.8244 11.5517 65.85 11.615C65.8755 11.6782 65.8884 11.7459 65.8879 11.8141C65.8875 11.8824 65.8736 11.9499 65.8472 12.0127C65.8208 12.0756 65.7824 12.1326 65.734 12.1806C62.9299 14.9556 61.1882 19.5598 61.1882 24.1947C61.1882 28.8295 62.8414 33.2688 65.6092 36.0687C65.6812 36.1414 65.73 36.234 65.7498 36.3346C65.7695 36.4353 65.7591 36.5396 65.72 36.6343C65.6809 36.7291 65.6148 36.8101 65.53 36.8671C65.4452 36.9241 65.3455 36.9546 65.2435 36.9548" fill="white"/>
<path d="M69.8359 36.9548C69.7339 36.9546 69.6342 36.9241 69.5494 36.8671C69.4646 36.8101 69.3984 36.7291 69.3593 36.6343C69.3202 36.5396 69.3099 36.4353 69.3296 36.3346C69.3493 36.234 69.3982 36.1414 69.4701 36.0687C72.238 33.2688 73.8912 28.8295 73.8912 24.1947C73.8912 19.5598 72.1495 14.9556 69.3438 12.1806C69.2955 12.1326 69.2571 12.0756 69.2307 12.0127C69.2043 11.9499 69.1904 11.8824 69.19 11.8141C69.1895 11.7459 69.2024 11.6782 69.2279 11.615C69.2534 11.5517 69.2911 11.4942 69.3388 11.4456C69.3864 11.397 69.4431 11.3583 69.5056 11.3317C69.5682 11.3052 69.6352 11.2913 69.7031 11.2908C69.771 11.2903 69.8383 11.3033 69.9011 11.329C69.964 11.3546 70.0212 11.3925 70.0696 11.4405C73.0638 14.4038 74.9246 19.2912 74.9246 24.1947C74.9246 29.0981 73.1596 33.8118 70.2016 36.8015C70.1532 36.8488 70.096 36.8861 70.0332 36.9111C69.9704 36.9361 69.9034 36.9485 69.8359 36.9475" fill="white"/>
<path d="M125.006 36.9723C124.869 36.9723 124.738 36.9175 124.641 36.8201C124.544 36.7226 124.489 36.5904 124.489 36.4526V11.7923C124.489 11.6544 124.544 11.5223 124.641 11.4248C124.738 11.3273 124.869 11.2726 125.006 11.2726C125.143 11.2726 125.274 11.3273 125.371 11.4248C125.468 11.5223 125.523 11.6544 125.523 11.7923V36.4526C125.523 36.5904 125.468 36.7226 125.371 36.8201C125.274 36.9175 125.143 36.9723 125.006 36.9723Z" fill="white"/>
<path d="M127.096 36.9723C126.959 36.9723 126.828 36.9175 126.731 36.8201C126.634 36.7226 126.58 36.5904 126.58 36.4526V11.7923C126.58 11.6544 126.634 11.5223 126.731 11.4248C126.828 11.3273 126.959 11.2726 127.096 11.2726C127.233 11.2726 127.365 11.3273 127.462 11.4248C127.559 11.5223 127.613 11.6544 127.613 11.7923V36.4526C127.613 36.5904 127.559 36.7226 127.462 36.8201C127.365 36.9175 127.233 36.9723 127.096 36.9723Z" fill="white"/>
<path d="M129.188 36.9723C129.051 36.9723 128.919 36.9175 128.822 36.8201C128.725 36.7226 128.671 36.5904 128.671 36.4526V11.7923C128.671 11.6544 128.725 11.5223 128.822 11.4248C128.919 11.3273 129.051 11.2726 129.188 11.2726C129.325 11.2726 129.456 11.3273 129.553 11.4248C129.65 11.5223 129.704 11.6544 129.704 11.7923V36.4526C129.704 36.5904 129.65 36.7226 129.553 36.8201C129.456 36.9175 129.325 36.9723 129.188 36.9723Z" fill="white"/>
<path d="M135.117 36.9723C134.98 36.9723 134.848 36.9175 134.751 36.8201C134.655 36.7226 134.6 36.5904 134.6 36.4526V11.7923C134.6 11.6544 134.655 11.5223 134.751 11.4248C134.848 11.3273 134.98 11.2726 135.117 11.2726C135.254 11.2726 135.385 11.3273 135.482 11.4248C135.579 11.5223 135.634 11.6544 135.634 11.7923V36.4526C135.634 36.5904 135.579 36.7226 135.482 36.8201C135.385 36.9175 135.254 36.9723 135.117 36.9723Z" fill="white"/>
<path d="M137.207 36.9723C137.07 36.9723 136.938 36.9175 136.841 36.8201C136.744 36.7226 136.69 36.5904 136.69 36.4526V11.7923C136.69 11.6544 136.744 11.5223 136.841 11.4248C136.938 11.3273 137.07 11.2726 137.207 11.2726C137.344 11.2726 137.475 11.3273 137.572 11.4248C137.669 11.5223 137.723 11.6544 137.723 11.7923V36.4526C137.723 36.5904 137.669 36.7226 137.572 36.8201C137.475 36.9175 137.344 36.9723 137.207 36.9723Z" fill="white"/>
<path d="M139.298 36.9723C139.161 36.9723 139.03 36.9175 138.933 36.8201C138.836 36.7226 138.782 36.5904 138.782 36.4526V11.7923C138.782 11.724 138.795 11.6564 138.821 11.5934C138.847 11.5303 138.885 11.4731 138.933 11.4248C138.981 11.3765 139.038 11.3383 139.101 11.3121C139.163 11.286 139.231 11.2726 139.298 11.2726C139.366 11.2726 139.433 11.286 139.496 11.3121C139.559 11.3383 139.616 11.3765 139.664 11.4248C139.712 11.4731 139.75 11.5303 139.776 11.5934C139.802 11.6564 139.815 11.724 139.815 11.7923V36.4526C139.815 36.5904 139.761 36.7226 139.664 36.8201C139.567 36.9175 139.435 36.9723 139.298 36.9723Z" fill="white"/>
<path d="M133.512 22.6137H130.789C130.726 22.6173 130.662 22.6078 130.603 22.5859C130.543 22.564 130.489 22.5301 130.443 22.4863C130.397 22.4425 130.36 22.3897 130.335 22.3312C130.31 22.2726 130.297 22.2096 130.297 22.1458C130.297 22.0821 130.31 22.019 130.335 21.9605C130.36 21.902 130.397 21.8492 130.443 21.8054C130.489 21.7616 130.543 21.7277 130.603 21.7058C130.662 21.6839 130.726 21.6744 130.789 21.678H133.512C133.575 21.6744 133.638 21.6839 133.698 21.7058C133.757 21.7277 133.812 21.7616 133.858 21.8054C133.904 21.8492 133.94 21.902 133.966 21.9605C133.991 22.019 134.004 22.0821 134.004 22.1458C134.004 22.2096 133.991 22.2726 133.966 22.3312C133.94 22.3897 133.904 22.4425 133.858 22.4863C133.812 22.5301 133.757 22.564 133.698 22.5859C133.638 22.6078 133.575 22.6173 133.512 22.6137Z" fill="white"/>
<path d="M133.512 24.5523H130.789C130.726 24.5559 130.662 24.5464 130.603 24.5245C130.543 24.5026 130.489 24.4687 130.443 24.4249C130.397 24.3811 130.36 24.3283 130.335 24.2698C130.31 24.2112 130.297 24.1482 130.297 24.0844C130.297 24.0207 130.31 23.9576 130.335 23.8991C130.36 23.8405 130.397 23.7878 130.443 23.744C130.489 23.7002 130.543 23.6663 130.603 23.6444C130.662 23.6225 130.726 23.613 130.789 23.6166H133.512C133.575 23.613 133.638 23.6225 133.698 23.6444C133.757 23.6663 133.812 23.7002 133.858 23.744C133.904 23.7878 133.94 23.8405 133.966 23.8991C133.991 23.9576 134.004 24.0207 134.004 24.0844C134.004 24.1482 133.991 24.2112 133.966 24.2698C133.94 24.3283 133.904 24.3811 133.858 24.4249C133.812 24.4687 133.757 24.5026 133.698 24.5245C133.638 24.5464 133.575 24.5559 133.512 24.5523Z" fill="white"/>
<path d="M133.512 26.488H130.789C130.726 26.4915 130.662 26.4821 130.603 26.4602C130.543 26.4383 130.489 26.4044 130.443 26.3606C130.397 26.3168 130.36 26.264 130.335 26.2055C130.31 26.1469 130.297 26.0838 130.297 26.0201C130.297 25.9564 130.31 25.8933 130.335 25.8348C130.36 25.7762 130.397 25.7234 130.443 25.6796C130.489 25.6358 130.543 25.602 130.603 25.5801C130.662 25.5582 130.726 25.5487 130.789 25.5522H133.512C133.575 25.5487 133.638 25.5582 133.698 25.5801C133.757 25.602 133.812 25.6358 133.858 25.6796C133.904 25.7234 133.94 25.7762 133.966 25.8348C133.991 25.8933 134.004 25.9564 134.004 26.0201C134.004 26.0838 133.991 26.1469 133.966 26.2055C133.94 26.264 133.904 26.3168 133.858 26.3606C133.812 26.4044 133.757 26.4383 133.698 26.4602C133.638 26.4821 133.575 26.4915 133.512 26.488Z" fill="white"/>
<path d="M51.6788 36.9767C51.5419 36.9763 51.4107 36.9214 51.3139 36.8241C51.2171 36.7267 51.1625 36.5947 51.1621 36.457V11.7967C51.1621 11.6588 51.2166 11.5266 51.3135 11.4292C51.4104 11.3317 51.5418 11.277 51.6788 11.277C51.8159 11.277 51.9473 11.3317 52.0442 11.4292C52.1411 11.5266 52.1955 11.6588 52.1955 11.7967V36.457C52.1955 36.5948 52.1411 36.727 52.0442 36.8245C51.9473 36.9219 51.8159 36.9767 51.6788 36.9767Z" fill="white"/>
<path d="M53.7701 36.9767C53.6331 36.9767 53.5017 36.9219 53.4048 36.8245C53.3079 36.727 53.2534 36.5948 53.2534 36.457V11.7967C53.2534 11.6588 53.3079 11.5266 53.4048 11.4292C53.5017 11.3317 53.6331 11.277 53.7701 11.277C53.9072 11.277 54.0386 11.3317 54.1355 11.4292C54.2324 11.5266 54.2868 11.6588 54.2868 11.7967V36.457C54.2868 36.5948 54.2324 36.727 54.1355 36.8245C54.0386 36.9219 53.9072 36.9767 53.7701 36.9767Z" fill="white"/>
<path d="M55.86 36.9767C55.723 36.9763 55.5918 36.9214 55.495 36.8241C55.3982 36.7267 55.3436 36.5947 55.3433 36.457V11.7967C55.3433 11.6588 55.3977 11.5266 55.4946 11.4292C55.5915 11.3317 55.7229 11.277 55.86 11.277C55.997 11.277 56.1284 11.3317 56.2253 11.4292C56.3222 11.5266 56.3767 11.6588 56.3767 11.7967V36.457C56.3767 36.5948 56.3222 36.727 56.2253 36.8245C56.1284 36.9219 55.997 36.9767 55.86 36.9767Z" fill="white"/>
<path d="M59.0651 22.6137H57.4511C57.3323 22.607 57.2204 22.5548 57.1386 22.4678C57.0568 22.3808 57.0112 22.2656 57.0112 22.1458C57.0112 22.0261 57.0568 21.9109 57.1386 21.8239C57.2204 21.7369 57.3323 21.6847 57.4511 21.678H59.0651C59.1284 21.6744 59.1917 21.6839 59.2512 21.7058C59.3108 21.7277 59.3652 21.7616 59.4112 21.8054C59.4573 21.8492 59.494 21.902 59.519 21.9605C59.5441 22.019 59.557 22.0821 59.557 22.1458C59.557 22.2096 59.5441 22.2726 59.519 22.3312C59.494 22.3897 59.4573 22.4425 59.4112 22.4863C59.3652 22.5301 59.3108 22.564 59.2512 22.5859C59.1917 22.6078 59.1284 22.6173 59.0651 22.6137Z" fill="white"/>
<path d="M59.0651 24.5523H57.4511C57.3323 24.5456 57.2204 24.4934 57.1386 24.4064C57.0568 24.3194 57.0112 24.2042 57.0112 24.0844C57.0112 23.9647 57.0568 23.8495 57.1386 23.7625C57.2204 23.6755 57.3323 23.6233 57.4511 23.6166H59.0651C59.1284 23.613 59.1917 23.6225 59.2512 23.6444C59.3108 23.6663 59.3652 23.7002 59.4112 23.744C59.4573 23.7878 59.494 23.8405 59.519 23.8991C59.5441 23.9576 59.557 24.0207 59.557 24.0844C59.557 24.1482 59.5441 24.2112 59.519 24.2698C59.494 24.3283 59.4573 24.3811 59.4112 24.4249C59.3652 24.4687 59.3108 24.5026 59.2512 24.5245C59.1917 24.5464 59.1284 24.5559 59.0651 24.5523Z" fill="white"/>
<path d="M59.0651 26.488H57.4511C57.3323 26.4813 57.2204 26.4291 57.1386 26.3421C57.0568 26.2551 57.0112 26.1399 57.0112 26.0201C57.0112 25.9004 57.0568 25.7851 57.1386 25.6981C57.2204 25.6111 57.3323 25.5589 57.4511 25.5522H59.0651C59.1284 25.5487 59.1917 25.5582 59.2512 25.5801C59.3108 25.602 59.3652 25.6358 59.4112 25.6796C59.4573 25.7234 59.494 25.7762 59.519 25.8348C59.5441 25.8933 59.557 25.9564 59.557 26.0201C59.557 26.0838 59.5441 26.1469 59.519 26.2055C59.494 26.264 59.4573 26.3168 59.4112 26.3606C59.3652 26.4044 59.3108 26.4383 59.2512 26.4602C59.1917 26.4821 59.1284 26.4915 59.0651 26.488Z" fill="white"/>
</g>
<defs>
<clipPath id="clip0_6_2295">
<rect width="139" height="37" fill="white" transform="translate(0.814941)"/>
</clipPath>
</defs>
</svg>
