<svg width="20" height="20" viewBox="0 0 20 20" fill="none" xmlns="http://www.w3.org/2000/svg">
<path d="M10 0.625C7.6875 0.625 5.78125 2.5 5.78125 4.84375C5.78125 7.15625 7.65625 9.0625 10 9.0625C12.3438 9.0625 14.2188 7.1875 14.2188 4.84375C14.2188 2.5 12.3125 0.625 10 0.625ZM10 6.25C9.21875 6.25 8.59375 5.625 8.59375 4.84375C8.59375 4.0625 9.21875 3.4375 10 3.4375C10.7812 3.4375 11.4062 4.0625 11.4062 4.84375C11.4062 5.625 10.7812 6.25 10 6.25Z" fill="white"/>
<path d="M15.1873 11.9063C14.1248 12.5 12.9685 12.9063 11.8123 13.0938L15.0935 17.125C15.4685 17.5938 15.5623 18.25 15.2185 18.75C14.6873 19.5625 13.5623 19.5938 12.9998 18.875L9.96853 15.1563L6.96853 18.875C6.68728 19.2188 6.31228 19.375 5.90603 19.375C5.49978 19.375 5.09353 19.1875 4.81228 18.8125C4.46853 18.3438 4.49978 17.5625 4.87478 17.0938L8.12478 13.0313C6.96853 12.8125 5.81228 12.4375 4.78103 11.8438C4.12478 11.4688 3.90603 10.6563 4.28103 9.96878C4.65603 9.31253 5.49978 9.09378 6.15603 9.46878C8.53103 10.8125 11.4998 10.8125 13.906 9.50003C14.5623 9.12503 15.406 9.37503 15.7498 10.0313C16.0935 10.7188 15.8435 11.5313 15.1873 11.9063Z" fill="white"/>
</svg>
