<svg width="20" height="20" viewBox="0 0 20 20" fill="none" xmlns="http://www.w3.org/2000/svg">
<path d="M13.5725 4.74792H2.29199V16.9191H5.43168V12.9594H11.4479L14.1929 16.9191H17.7086L14.6817 12.9412C15.6218 12.7952 16.2986 12.4484 16.7122 11.9011C17.1257 11.3537 17.3326 10.4777 17.3326 9.3099V8.39751C17.3326 7.70407 17.2575 7.15668 17.1258 6.73699C16.9942 6.3173 16.7686 5.9523 16.449 5.62386C16.1105 5.31365 15.7346 5.0947 15.2833 4.94876C14.8321 4.82105 14.268 4.74792 13.5725 4.74792ZM13.0649 10.2771H5.43168V7.43032H13.0649C13.4972 7.43032 13.798 7.50324 13.9485 7.63105C14.0989 7.75876 14.1929 7.99595 14.1929 8.34272V9.36459C14.1929 9.72949 14.0989 9.96668 13.9485 10.0944C13.798 10.2221 13.4973 10.2769 13.0649 10.2769V10.2771Z" fill="white"/>
<path d="M17.0761 4.53939C17.6511 4.53939 18.1175 4.07303 18.1175 3.49772C18.1175 2.92241 17.6511 2.45605 17.0761 2.45605C16.5006 2.45605 16.0342 2.92241 16.0342 3.49772C16.0342 4.07303 16.5006 4.53939 17.0761 4.53939Z" fill="white"/>
</svg>
