<svg width="20" height="20" viewBox="0 0 20 20" fill="none" xmlns="http://www.w3.org/2000/svg">
<g clip-path="url(#clip0_10_3676)">
<path d="M19.894 14.5999C19.8698 14.5477 19.8472 14.5044 19.8262 14.4697C19.4792 13.8447 18.8161 13.0776 17.8373 12.1682L17.8166 12.1474L17.8063 12.1372L17.7958 12.1267H17.7853C17.341 11.7032 17.0597 11.4185 16.9419 11.2727C16.7264 10.995 16.6781 10.7139 16.7959 10.4291C16.8791 10.2139 17.1918 9.75944 17.7331 9.06511C18.0178 8.69714 18.2433 8.40222 18.4099 8.18003C19.611 6.58327 20.1317 5.56291 19.9719 5.11857L19.9099 5.01473C19.8682 4.95221 19.7606 4.89503 19.5872 4.84287C19.4135 4.79082 19.1914 4.78222 18.9206 4.8169L15.9217 4.83762C15.8731 4.8204 15.8037 4.82201 15.7134 4.84287C15.6231 4.86373 15.5779 4.8742 15.5779 4.8742L15.5257 4.90028L15.4843 4.93161C15.4496 4.95232 15.4114 4.98876 15.3697 5.04084C15.3282 5.09274 15.2936 5.15365 15.2658 5.22306C14.9393 6.06306 14.5681 6.84404 14.1515 7.56598C13.8946 7.99647 13.6587 8.36954 13.4433 8.68543C13.2281 9.00121 13.0476 9.23387 12.9019 9.38301C12.756 9.53229 12.6244 9.65188 12.5061 9.74222C12.3881 9.8326 12.298 9.87079 12.2355 9.85682C12.173 9.84285 12.1141 9.82899 12.0583 9.81513C11.9612 9.75262 11.8831 9.6676 11.8242 9.56001C11.765 9.45241 11.7252 9.31699 11.7044 9.15385C11.6836 8.9906 11.6714 8.85018 11.6679 8.73212C11.6646 8.6142 11.6661 8.44741 11.6732 8.23223C11.6804 8.01693 11.6836 7.87126 11.6836 7.79488C11.6836 7.53104 11.6888 7.24469 11.6991 6.93577C11.7096 6.62685 11.7181 6.38208 11.7252 6.20176C11.7323 6.02126 11.7356 5.83029 11.7356 5.62896C11.7356 5.42763 11.7233 5.26974 11.6991 5.15515C11.6752 5.0407 11.6385 4.9296 11.5901 4.8219C11.5414 4.7143 11.4701 4.63107 11.3766 4.57199C11.2829 4.51298 11.1664 4.46615 11.0278 4.43135C10.6598 4.34808 10.1912 4.30304 9.62185 4.29604C8.33069 4.28218 7.50105 4.36555 7.13311 4.54606C6.98733 4.62232 6.85541 4.72652 6.73746 4.85833C6.61247 5.01112 6.59504 5.09449 6.68527 5.10821C7.10186 5.17061 7.39677 5.31989 7.57035 5.55591L7.6329 5.68097C7.68155 5.77121 7.73013 5.93095 7.77875 6.16C7.8273 6.38905 7.85863 6.64242 7.87241 6.91998C7.90706 7.42684 7.90706 7.86072 7.87241 8.22165C7.83765 8.58273 7.80483 8.86382 7.7735 9.06515C7.74217 9.26648 7.69534 9.42962 7.6329 9.55454C7.57035 9.67949 7.52873 9.75586 7.50787 9.78358C7.48704 9.8113 7.46968 9.82877 7.4559 9.83563C7.36566 9.87021 7.27182 9.88782 7.17469 9.88782C7.07742 9.88782 6.95947 9.83917 6.82065 9.74193C6.68188 9.6447 6.53785 9.51113 6.38856 9.34103C6.23928 9.17088 6.07093 8.93312 5.88342 8.6277C5.69606 8.32228 5.50166 7.96131 5.30033 7.54479L5.13376 7.24273C5.02963 7.0484 4.88739 6.76545 4.70689 6.39412C4.52628 6.02265 4.36664 5.66332 4.22786 5.31621C4.17238 5.17043 4.08904 5.05944 3.97799 4.98307L3.92587 4.95174C3.89122 4.92402 3.8356 4.89459 3.7593 4.86322C3.68289 4.83189 3.60316 4.80942 3.51978 4.7956L0.666572 4.81632C0.375011 4.81632 0.177184 4.88237 0.073018 5.01429L0.0313299 5.07669C0.0105041 5.11145 0 5.16696 0 5.24337C0 5.31975 0.0208258 5.41348 0.0625139 5.52447C0.47903 6.50339 0.931983 7.44748 1.42137 8.35689C1.91076 9.26629 2.33603 9.99884 2.69692 10.5539C3.05789 11.1093 3.42583 11.6335 3.80073 12.1263C4.17563 12.6192 4.42379 12.9351 4.54521 13.0739C4.66677 13.2129 4.76225 13.3169 4.83166 13.3863L5.09204 13.6361C5.25865 13.8028 5.5033 14.0024 5.82612 14.2349C6.14901 14.4675 6.50648 14.6966 6.89871 14.9224C7.291 15.1478 7.74739 15.3318 8.2681 15.4741C8.78875 15.6165 9.2955 15.6736 9.78842 15.6461H10.986C11.2288 15.6251 11.4128 15.5487 11.5379 15.4169L11.5793 15.3647C11.6072 15.3233 11.6333 15.2589 11.6573 15.1723C11.6817 15.0855 11.6938 14.9899 11.6938 14.8859C11.6867 14.5875 11.7094 14.3185 11.7614 14.079C11.8133 13.8396 11.8724 13.6591 11.9386 13.5376C12.0047 13.4161 12.0793 13.3136 12.1624 13.2305C12.2456 13.1473 12.3049 13.0968 12.3397 13.0795C12.3743 13.062 12.4019 13.0501 12.4227 13.043C12.5893 12.9875 12.7854 13.0413 13.0112 13.2046C13.2369 13.3677 13.4486 13.5691 13.6465 13.8085C13.8444 14.0482 14.0821 14.317 14.3597 14.6155C14.6376 14.914 14.8805 15.136 15.0886 15.282L15.2968 15.4069C15.4359 15.4903 15.6164 15.5667 15.8386 15.6361C16.0604 15.7054 16.2547 15.7228 16.4215 15.6881L19.0872 15.6465C19.3509 15.6465 19.556 15.6029 19.7015 15.5163C19.8474 15.4295 19.934 15.3339 19.9619 15.2299C19.9898 15.1258 19.9913 15.0077 19.9672 14.8757C19.9425 14.744 19.9182 14.6519 19.894 14.5999Z" fill="white"/>
</g>
<defs>
<clipPath id="clip0_10_3676">
<rect width="20" height="20" fill="white"/>
</clipPath>
</defs>
</svg>
