<svg width="20" height="20" viewBox="0 0 20 20" fill="none" xmlns="http://www.w3.org/2000/svg">
<path d="M10.1718 17.539C7.94129 17.4687 5.8202 17.414 3.69911 17.332C3.24208 17.3125 2.77723 17.2422 2.33192 17.1367C1.49598 16.9414 0.917857 16.4375 0.620982 15.6132C0.382701 14.9492 0.296763 14.2656 0.234263 13.5703C0.0975444 11.9375 0.0975444 10.3047 0.163951 8.67184C0.203013 7.74996 0.226451 6.82028 0.472544 5.92575C0.620982 5.39059 0.800669 4.86715 1.23426 4.48043C1.69129 4.07028 2.22645 3.82418 2.83583 3.79684C4.5077 3.71481 6.17567 3.61325 7.84754 3.59762C10.0975 3.57418 12.3514 3.60543 14.6014 3.6484C15.5741 3.66793 16.5546 3.71871 17.5194 3.84371C18.4022 3.9609 19.0624 4.45309 19.4139 5.31246C19.6835 5.97262 19.785 6.66403 19.8436 7.36715C19.996 9.12887 19.9999 10.8906 19.9139 12.6523C19.871 13.5468 19.828 14.4453 19.5741 15.3164C19.285 16.3164 18.6718 16.9765 17.6483 17.2031C17.2499 17.289 16.8358 17.3203 16.4296 17.3359C14.3046 17.4101 12.1835 17.4765 10.1718 17.539ZM8.01161 13.0976C9.79286 12.1757 11.5546 11.2617 13.3514 10.3281C11.5585 9.39059 9.79676 8.47262 8.01161 7.53903C8.01161 9.40231 8.01161 11.2343 8.01161 13.0976Z" fill="white"/>
</svg>
